<mxfile host="app.diagrams.net" modified="2023-07-17T06:33:16.201Z" agent="Mozilla/5.0 (Windows NT 10.0; Win64; x64) AppleWebKit/537.36 (KHTML, like Gecko) Chrome/114.0.0.0 Safari/537.36" version="21.6.1" etag="UdQsZL5Uh-nyLDD_SSpr" type="github">
  <diagram name="Page-1" id="rNv2Nb2OwKcxHrX9SRK3">
    <mxGraphModel>
      <root>
        <mxCell id="0" />
        <mxCell id="1" parent="0" />
      </root>
    </mxGraphModel>
  </diagram>
</mxfile>
